<mxfile host="65bd71144e">
    <diagram id="jAxCeK56O9wjtcHRCLRh" name="Page-1">
        <mxGraphModel dx="2356" dy="1473" grid="1" gridSize="10" guides="1" tooltips="1" connect="1" arrows="1" fold="1" page="1" pageScale="1" pageWidth="900" pageHeight="500" math="0" shadow="0">
            <root>
                <mxCell id="0"/>
                <mxCell id="1" parent="0"/>
                <mxCell id="23" value="" style="outlineConnect=0;dashed=0;verticalLabelPosition=bottom;verticalAlign=top;align=center;html=1;shape=mxgraph.aws3.s3;fillColor=#E05243;gradientColor=none;rounded=1;" parent="1" vertex="1">
                    <mxGeometry x="677" y="360" width="76.5" height="93" as="geometry"/>
                </mxCell>
                <mxCell id="24" value="" style="outlineConnect=0;dashed=0;verticalLabelPosition=bottom;verticalAlign=top;align=center;html=1;shape=mxgraph.aws3.api_gateway;fillColor=#D9A741;gradientColor=none;rounded=1;" parent="1" vertex="1">
                    <mxGeometry x="676" y="480" width="76.5" height="93" as="geometry"/>
                </mxCell>
                <mxCell id="25" value="" style="outlineConnect=0;dashed=0;verticalLabelPosition=bottom;verticalAlign=top;align=center;html=1;shape=mxgraph.aws3.lambda;fillColor=#F58534;gradientColor=none;rounded=1;" parent="1" vertex="1">
                    <mxGeometry x="677" y="600" width="76.5" height="93" as="geometry"/>
                </mxCell>
                <mxCell id="26" value="S3" style="text;html=1;strokeColor=none;fillColor=none;align=center;verticalAlign=middle;whiteSpace=wrap;rounded=1;" parent="1" vertex="1">
                    <mxGeometry x="760" y="391.5" width="60" height="30" as="geometry"/>
                </mxCell>
                <mxCell id="27" value="API Gateway" style="text;html=1;strokeColor=none;fillColor=none;align=center;verticalAlign=middle;whiteSpace=wrap;rounded=1;" parent="1" vertex="1">
                    <mxGeometry x="760" y="511.5" width="60" height="30" as="geometry"/>
                </mxCell>
                <mxCell id="28" value="Lambda" style="text;html=1;strokeColor=none;fillColor=none;align=center;verticalAlign=middle;whiteSpace=wrap;rounded=1;" parent="1" vertex="1">
                    <mxGeometry x="760" y="631.5" width="60" height="30" as="geometry"/>
                </mxCell>
                <mxCell id="30" value="App" style="rounded=1;whiteSpace=wrap;html=1;fillColor=#f8cecc;strokeColor=#b85450;" parent="1" vertex="1">
                    <mxGeometry x="312.5" y="377" width="120" height="60" as="geometry"/>
                </mxCell>
                <mxCell id="31" value="API" style="rounded=1;whiteSpace=wrap;html=1;fillColor=#fff2cc;strokeColor=#d6b656;" parent="1" vertex="1">
                    <mxGeometry x="312.5" y="493.5" width="120" height="60" as="geometry"/>
                </mxCell>
                <mxCell id="32" value="Logic" style="rounded=1;whiteSpace=wrap;html=1;fillColor=#ffe6cc;strokeColor=#d79b00;" parent="1" vertex="1">
                    <mxGeometry x="312.5" y="613.5" width="120" height="60" as="geometry"/>
                </mxCell>
                <mxCell id="33" value="" style="shape=flexArrow;endArrow=classic;html=1;rounded=1;width=30.833333333333336;endSize=8.55;fillColor=#f8cecc;strokeColor=#b85450;" parent="1" edge="1">
                    <mxGeometry width="50" height="50" relative="1" as="geometry">
                        <mxPoint x="482.5" y="409.58000000000004" as="sourcePoint"/>
                        <mxPoint x="646" y="410" as="targetPoint"/>
                    </mxGeometry>
                </mxCell>
                <mxCell id="34" value="Single Page App" style="edgeLabel;html=1;align=center;verticalAlign=middle;resizable=0;points=[];labelBackgroundColor=none;" parent="33" vertex="1" connectable="0">
                    <mxGeometry x="-0.3931" y="3" relative="1" as="geometry">
                        <mxPoint x="16" y="3" as="offset"/>
                    </mxGeometry>
                </mxCell>
                <mxCell id="35" value="" style="shape=flexArrow;endArrow=classic;html=1;rounded=1;width=30.833333333333336;endSize=8.55;fillColor=#fff2cc;strokeColor=#d6b656;" parent="1" edge="1">
                    <mxGeometry width="50" height="50" relative="1" as="geometry">
                        <mxPoint x="482.5" y="526.08" as="sourcePoint"/>
                        <mxPoint x="646" y="526" as="targetPoint"/>
                    </mxGeometry>
                </mxCell>
                <mxCell id="36" value="Rest API" style="edgeLabel;html=1;align=center;verticalAlign=middle;resizable=0;points=[];labelBackgroundColor=none;" parent="35" vertex="1" connectable="0">
                    <mxGeometry x="-0.3931" y="3" relative="1" as="geometry">
                        <mxPoint x="24" y="3" as="offset"/>
                    </mxGeometry>
                </mxCell>
                <mxCell id="37" value="" style="shape=flexArrow;endArrow=classic;html=1;rounded=1;width=30.833333333333336;endSize=8.55;fillColor=#ffe6cc;strokeColor=#d79b00;" parent="1" edge="1">
                    <mxGeometry width="50" height="50" relative="1" as="geometry">
                        <mxPoint x="482.5" y="646.0799999999999" as="sourcePoint"/>
                        <mxPoint x="646" y="646" as="targetPoint"/>
                    </mxGeometry>
                </mxCell>
                <mxCell id="38" value="Execute code on demand" style="edgeLabel;html=1;align=center;verticalAlign=middle;resizable=0;points=[];labelBackgroundColor=none;" parent="37" vertex="1" connectable="0">
                    <mxGeometry x="-0.3931" y="3" relative="1" as="geometry">
                        <mxPoint x="30" y="3" as="offset"/>
                    </mxGeometry>
                </mxCell>
                <mxCell id="40" value="DynamoDB" style="text;html=1;strokeColor=none;fillColor=none;align=center;verticalAlign=middle;whiteSpace=wrap;rounded=1;" parent="1" vertex="1">
                    <mxGeometry x="760" y="745.5" width="60" height="30" as="geometry"/>
                </mxCell>
                <mxCell id="41" value="Data" style="rounded=1;whiteSpace=wrap;html=1;fillColor=#dae8fc;strokeColor=#6c8ebf;" parent="1" vertex="1">
                    <mxGeometry x="312.5" y="727.5" width="120" height="60" as="geometry"/>
                </mxCell>
                <mxCell id="42" value="" style="shape=flexArrow;endArrow=classic;html=1;rounded=1;width=30.833333333333336;endSize=8.55;fillColor=#dae8fc;strokeColor=#6c8ebf;" parent="1" edge="1">
                    <mxGeometry width="50" height="50" relative="1" as="geometry">
                        <mxPoint x="482.5" y="760.0799999999999" as="sourcePoint"/>
                        <mxPoint x="646" y="760" as="targetPoint"/>
                    </mxGeometry>
                </mxCell>
                <mxCell id="43" value="Store &amp;amp; retrieve data" style="edgeLabel;html=1;align=center;verticalAlign=middle;resizable=0;points=[];labelBackgroundColor=none;" parent="42" vertex="1" connectable="0">
                    <mxGeometry x="-0.3931" y="3" relative="1" as="geometry">
                        <mxPoint x="30" y="3" as="offset"/>
                    </mxGeometry>
                </mxCell>
                <mxCell id="44" value="" style="outlineConnect=0;dashed=0;verticalLabelPosition=bottom;verticalAlign=top;align=center;html=1;shape=mxgraph.aws3.dynamo_db;fillColor=#2E73B8;gradientColor=none;rounded=1;labelBackgroundColor=none;" parent="1" vertex="1">
                    <mxGeometry x="678.25" y="720" width="72" height="81" as="geometry"/>
                </mxCell>
                <mxCell id="45" value="" style="edgeStyle=orthogonalEdgeStyle;html=1;endArrow=block;elbow=vertical;startArrow=none;endFill=1;strokeColor=#545B64;rounded=0;exitX=0.5;exitY=1;exitDx=0;exitDy=0;entryX=0.5;entryY=0;entryDx=0;entryDy=0;" parent="1" source="30" target="31" edge="1">
                    <mxGeometry width="100" relative="1" as="geometry">
                        <mxPoint x="372.5" y="457" as="sourcePoint"/>
                        <mxPoint x="472.5" y="457" as="targetPoint"/>
                    </mxGeometry>
                </mxCell>
                <mxCell id="51" value="" style="edgeStyle=orthogonalEdgeStyle;html=1;endArrow=block;elbow=vertical;startArrow=none;endFill=1;strokeColor=#545B64;rounded=0;entryX=0.5;entryY=0;entryDx=0;entryDy=0;" parent="1" source="31" target="32" edge="1">
                    <mxGeometry width="100" relative="1" as="geometry">
                        <mxPoint x="372.08" y="553.4999999999999" as="sourcePoint"/>
                        <mxPoint x="372.08" y="610.0000000000001" as="targetPoint"/>
                    </mxGeometry>
                </mxCell>
                <mxCell id="52" value="" style="edgeStyle=orthogonalEdgeStyle;html=1;endArrow=block;elbow=vertical;startArrow=none;endFill=1;strokeColor=#545B64;rounded=0;exitX=0.5;exitY=1;exitDx=0;exitDy=0;" parent="1" source="32" edge="1">
                    <mxGeometry width="100" relative="1" as="geometry">
                        <mxPoint x="372.08" y="682.5" as="sourcePoint"/>
                        <mxPoint x="372.5" y="727" as="targetPoint"/>
                    </mxGeometry>
                </mxCell>
                <mxCell id="63" value="Cognito" style="text;html=1;strokeColor=none;fillColor=none;align=center;verticalAlign=middle;whiteSpace=wrap;rounded=1;" parent="1" vertex="1">
                    <mxGeometry x="760" y="865.5" width="60" height="30" as="geometry"/>
                </mxCell>
                <mxCell id="64" value="Auth" style="rounded=1;whiteSpace=wrap;html=1;fillColor=#e1d5e7;strokeColor=#9673a6;" parent="1" vertex="1">
                    <mxGeometry x="312.5" y="847.5" width="120" height="60" as="geometry"/>
                </mxCell>
                <mxCell id="65" value="" style="shape=flexArrow;endArrow=classic;html=1;rounded=1;width=30.833333333333336;endSize=8.55;fillColor=#e1d5e7;strokeColor=#9673a6;" parent="1" edge="1">
                    <mxGeometry width="50" height="50" relative="1" as="geometry">
                        <mxPoint x="482.5" y="880.0799999999999" as="sourcePoint"/>
                        <mxPoint x="646" y="880" as="targetPoint"/>
                    </mxGeometry>
                </mxCell>
                <mxCell id="66" value="Authenticate users" style="edgeLabel;html=1;align=center;verticalAlign=middle;resizable=0;points=[];labelBackgroundColor=none;" parent="65" vertex="1" connectable="0">
                    <mxGeometry x="-0.3931" y="3" relative="1" as="geometry">
                        <mxPoint x="30" y="3" as="offset"/>
                    </mxGeometry>
                </mxCell>
                <mxCell id="68" value="" style="outlineConnect=0;dashed=0;verticalLabelPosition=bottom;verticalAlign=top;align=center;html=1;shape=mxgraph.aws3.cognito;fillColor=#AD688B;gradientColor=none;rounded=1;labelBackgroundColor=none;" parent="1" vertex="1">
                    <mxGeometry x="673.75" y="834" width="76.5" height="93" as="geometry"/>
                </mxCell>
                <mxCell id="69" value="" style="edgeStyle=orthogonalEdgeStyle;html=1;endArrow=block;elbow=vertical;startArrow=block;startFill=1;endFill=1;strokeColor=#545B64;rounded=0;exitX=0;exitY=0.5;exitDx=0;exitDy=0;entryX=0;entryY=0.5;entryDx=0;entryDy=0;" parent="1" source="30" target="64" edge="1">
                    <mxGeometry width="100" relative="1" as="geometry">
                        <mxPoint x="252.5" y="407" as="sourcePoint"/>
                        <mxPoint x="222.5" y="877" as="targetPoint"/>
                        <Array as="points">
                            <mxPoint x="292.5" y="407"/>
                            <mxPoint x="292.5" y="878"/>
                        </Array>
                    </mxGeometry>
                </mxCell>
                <mxCell id="70" value="" style="edgeStyle=orthogonalEdgeStyle;html=1;endArrow=block;elbow=vertical;startArrow=block;startFill=1;endFill=1;strokeColor=#545B64;rounded=0;exitX=1;exitY=0.5;exitDx=0;exitDy=0;entryX=1;entryY=0.5;entryDx=0;entryDy=0;" parent="1" source="31" target="64" edge="1">
                    <mxGeometry width="100" relative="1" as="geometry">
                        <mxPoint x="462.5" y="577" as="sourcePoint"/>
                        <mxPoint x="452.5" y="877" as="targetPoint"/>
                        <Array as="points">
                            <mxPoint x="452.5" y="524"/>
                            <mxPoint x="452.5" y="878"/>
                        </Array>
                    </mxGeometry>
                </mxCell>
                <mxCell id="76" value="Route 53" style="text;html=1;strokeColor=none;fillColor=none;align=center;verticalAlign=middle;whiteSpace=wrap;rounded=1;" parent="1" vertex="1">
                    <mxGeometry x="760" y="988.5" width="60" height="30" as="geometry"/>
                </mxCell>
                <mxCell id="77" value="DNS" style="rounded=1;whiteSpace=wrap;html=1;fillColor=#ffe6cc;strokeColor=#d79b00;" parent="1" vertex="1">
                    <mxGeometry x="312.5" y="970.5" width="120" height="60" as="geometry"/>
                </mxCell>
                <mxCell id="78" value="" style="shape=flexArrow;endArrow=classic;html=1;rounded=1;width=30.833333333333336;endSize=8.55;fillColor=#ffe6cc;strokeColor=#d79b00;" parent="1" edge="1">
                    <mxGeometry width="50" height="50" relative="1" as="geometry">
                        <mxPoint x="482.5" y="1003.0799999999999" as="sourcePoint"/>
                        <mxPoint x="645.9999999999998" y="1003" as="targetPoint"/>
                    </mxGeometry>
                </mxCell>
                <mxCell id="79" value="Translate URL" style="edgeLabel;html=1;align=center;verticalAlign=middle;resizable=0;points=[];labelBackgroundColor=none;" parent="78" vertex="1" connectable="0">
                    <mxGeometry x="-0.3931" y="3" relative="1" as="geometry">
                        <mxPoint x="30" y="3" as="offset"/>
                    </mxGeometry>
                </mxCell>
                <mxCell id="81" value="" style="edgeStyle=orthogonalEdgeStyle;html=1;endArrow=block;elbow=vertical;startArrow=block;startFill=1;endFill=1;strokeColor=#545B64;rounded=0;exitX=0;exitY=0.25;exitDx=0;exitDy=0;" parent="1" source="30" target="77" edge="1">
                    <mxGeometry width="100" relative="1" as="geometry">
                        <mxPoint x="282.5" y="411.2499999999999" as="sourcePoint"/>
                        <mxPoint x="292.5" y="997" as="targetPoint"/>
                        <Array as="points">
                            <mxPoint x="262.5" y="392"/>
                            <mxPoint x="262.5" y="1007"/>
                        </Array>
                    </mxGeometry>
                </mxCell>
                <mxCell id="82" value="" style="outlineConnect=0;dashed=0;verticalLabelPosition=bottom;verticalAlign=top;align=center;html=1;shape=mxgraph.aws3.route_53;fillColor=#F58536;gradientColor=none;rounded=1;labelBackgroundColor=none;" parent="1" vertex="1">
                    <mxGeometry x="673.5" y="961" width="70.5" height="85.5" as="geometry"/>
                </mxCell>
                <mxCell id="84" value="Cloud Front" style="text;html=1;strokeColor=none;fillColor=none;align=center;verticalAlign=middle;whiteSpace=wrap;rounded=1;" parent="1" vertex="1">
                    <mxGeometry x="760" y="1098.5" width="60" height="30" as="geometry"/>
                </mxCell>
                <mxCell id="85" value="Cache" style="rounded=1;whiteSpace=wrap;html=1;fillColor=#ffe6cc;strokeColor=#d79b00;" parent="1" vertex="1">
                    <mxGeometry x="312.5" y="1083.5" width="120" height="60" as="geometry"/>
                </mxCell>
                <mxCell id="86" value="" style="shape=flexArrow;endArrow=classic;html=1;rounded=1;width=30.833333333333336;endSize=8.55;fillColor=#ffe6cc;strokeColor=#d79b00;" parent="1" edge="1">
                    <mxGeometry width="50" height="50" relative="1" as="geometry">
                        <mxPoint x="482.5" y="1116.08" as="sourcePoint"/>
                        <mxPoint x="645.9999999999998" y="1116" as="targetPoint"/>
                    </mxGeometry>
                </mxCell>
                <mxCell id="87" value="Improve performance" style="edgeLabel;html=1;align=center;verticalAlign=middle;resizable=0;points=[];labelBackgroundColor=none;" parent="86" vertex="1" connectable="0">
                    <mxGeometry x="-0.3931" y="3" relative="1" as="geometry">
                        <mxPoint x="30" y="3" as="offset"/>
                    </mxGeometry>
                </mxCell>
                <mxCell id="89" value="" style="outlineConnect=0;dashed=0;verticalLabelPosition=bottom;verticalAlign=top;align=center;html=1;shape=mxgraph.aws3.cloudfront;fillColor=#F58536;gradientColor=none;rounded=1;labelBackgroundColor=none;" parent="1" vertex="1">
                    <mxGeometry x="670.5" y="1067" width="76.5" height="93" as="geometry"/>
                </mxCell>
                <mxCell id="90" value="" style="edgeStyle=orthogonalEdgeStyle;html=1;endArrow=block;elbow=vertical;startArrow=block;startFill=1;endFill=1;strokeColor=#545B64;rounded=0;exitX=0;exitY=0.75;exitDx=0;exitDy=0;" parent="1" source="30" target="85" edge="1">
                    <mxGeometry width="100" relative="1" as="geometry">
                        <mxPoint x="282.5" y="421.9999999999999" as="sourcePoint"/>
                        <mxPoint x="282.5" y="1037.0000000000002" as="targetPoint"/>
                        <Array as="points">
                            <mxPoint x="242.5" y="422"/>
                            <mxPoint x="242.5" y="1114"/>
                        </Array>
                    </mxGeometry>
                </mxCell>
                <mxCell id="91" value="S3" style="swimlane;whiteSpace=wrap;html=1;rounded=1;labelBackgroundColor=none;" parent="1" vertex="1">
                    <mxGeometry y="1220" width="200" height="200" as="geometry"/>
                </mxCell>
                <mxCell id="98" value="SPA" style="rounded=1;whiteSpace=wrap;html=1;labelBackgroundColor=none;" parent="91" vertex="1">
                    <mxGeometry x="40" y="50" width="120" height="60" as="geometry"/>
                </mxCell>
                <mxCell id="93" value="API Gateway" style="swimlane;whiteSpace=wrap;html=1;rounded=1;labelBackgroundColor=none;" parent="1" vertex="1">
                    <mxGeometry x="440" y="1220" width="200" height="280" as="geometry"/>
                </mxCell>
                <mxCell id="95" value="GET" style="rounded=1;whiteSpace=wrap;html=1;labelBackgroundColor=none;" parent="93" vertex="1">
                    <mxGeometry x="40" y="50" width="120" height="60" as="geometry"/>
                </mxCell>
                <mxCell id="96" value="POST" style="rounded=1;whiteSpace=wrap;html=1;labelBackgroundColor=none;" parent="93" vertex="1">
                    <mxGeometry x="40" y="130" width="120" height="60" as="geometry"/>
                </mxCell>
                <mxCell id="97" value="DELETE" style="rounded=1;whiteSpace=wrap;html=1;labelBackgroundColor=none;" parent="93" vertex="1">
                    <mxGeometry x="40" y="210" width="120" height="60" as="geometry"/>
                </mxCell>
                <mxCell id="99" value="" style="endArrow=classic;html=1;rounded=1;exitX=1;exitY=0.5;exitDx=0;exitDy=0;entryX=0;entryY=0.5;entryDx=0;entryDy=0;" parent="1" source="98" target="95" edge="1">
                    <mxGeometry width="50" height="50" relative="1" as="geometry">
                        <mxPoint x="290" y="1330" as="sourcePoint"/>
                        <mxPoint x="340" y="1280" as="targetPoint"/>
                    </mxGeometry>
                </mxCell>
                <mxCell id="100" value="" style="endArrow=classic;html=1;rounded=1;entryX=0;entryY=0.5;entryDx=0;entryDy=0;exitX=1;exitY=0.5;exitDx=0;exitDy=0;" parent="1" source="98" target="96" edge="1">
                    <mxGeometry width="50" height="50" relative="1" as="geometry">
                        <mxPoint x="160" y="1320" as="sourcePoint"/>
                        <mxPoint x="340" y="1330" as="targetPoint"/>
                    </mxGeometry>
                </mxCell>
                <mxCell id="101" value="" style="endArrow=classic;html=1;rounded=1;entryX=0;entryY=0.5;entryDx=0;entryDy=0;exitX=1;exitY=0.5;exitDx=0;exitDy=0;" parent="1" source="98" target="97" edge="1">
                    <mxGeometry width="50" height="50" relative="1" as="geometry">
                        <mxPoint x="230" y="1320" as="sourcePoint"/>
                        <mxPoint x="310" y="1420" as="targetPoint"/>
                    </mxGeometry>
                </mxCell>
                <mxCell id="102" value="Lambda" style="swimlane;whiteSpace=wrap;html=1;rounded=1;labelBackgroundColor=none;" parent="1" vertex="1">
                    <mxGeometry x="668" y="1220" width="200" height="200" as="geometry"/>
                </mxCell>
                <mxCell id="103" value="Business Logic" style="rounded=1;whiteSpace=wrap;html=1;labelBackgroundColor=none;" parent="102" vertex="1">
                    <mxGeometry x="40" y="80" width="120" height="60" as="geometry"/>
                </mxCell>
                <mxCell id="104" value="" style="endArrow=classic;html=1;rounded=1;exitX=1;exitY=0.5;exitDx=0;exitDy=0;entryX=0;entryY=0.25;entryDx=0;entryDy=0;" parent="1" source="95" target="103" edge="1">
                    <mxGeometry width="50" height="50" relative="1" as="geometry">
                        <mxPoint x="710" y="1510" as="sourcePoint"/>
                        <mxPoint x="760" y="1460" as="targetPoint"/>
                    </mxGeometry>
                </mxCell>
                <mxCell id="105" value="" style="endArrow=classic;html=1;rounded=1;exitX=1;exitY=0.5;exitDx=0;exitDy=0;entryX=0;entryY=0.5;entryDx=0;entryDy=0;" parent="1" source="96" target="103" edge="1">
                    <mxGeometry width="50" height="50" relative="1" as="geometry">
                        <mxPoint x="690" y="1490" as="sourcePoint"/>
                        <mxPoint x="740" y="1440" as="targetPoint"/>
                    </mxGeometry>
                </mxCell>
                <mxCell id="106" value="" style="endArrow=classic;html=1;rounded=1;exitX=1;exitY=0.5;exitDx=0;exitDy=0;entryX=0;entryY=0.75;entryDx=0;entryDy=0;" parent="1" source="97" target="103" edge="1">
                    <mxGeometry width="50" height="50" relative="1" as="geometry">
                        <mxPoint x="700" y="1470" as="sourcePoint"/>
                        <mxPoint x="750" y="1420" as="targetPoint"/>
                    </mxGeometry>
                </mxCell>
                <mxCell id="107" value="DynamoDB" style="swimlane;whiteSpace=wrap;html=1;rounded=1;labelBackgroundColor=none;" parent="1" vertex="1">
                    <mxGeometry x="890" y="1220" width="200" height="200" as="geometry"/>
                </mxCell>
                <mxCell id="108" value="Data Domains" style="rounded=1;whiteSpace=wrap;html=1;labelBackgroundColor=none;" parent="107" vertex="1">
                    <mxGeometry x="50" y="80" width="120" height="60" as="geometry"/>
                </mxCell>
                <mxCell id="109" value="" style="endArrow=classic;html=1;rounded=1;entryX=0;entryY=0.5;entryDx=0;entryDy=0;" parent="1" target="108" edge="1">
                    <mxGeometry width="50" height="50" relative="1" as="geometry">
                        <mxPoint x="830" y="1330" as="sourcePoint"/>
                        <mxPoint x="920" y="1420" as="targetPoint"/>
                    </mxGeometry>
                </mxCell>
                <mxCell id="111" value="Cognito" style="swimlane;whiteSpace=wrap;html=1;rounded=1;labelBackgroundColor=none;" parent="1" vertex="1">
                    <mxGeometry x="220" y="1220" width="200" height="200" as="geometry"/>
                </mxCell>
                <mxCell id="112" value="AWS Cloud" style="points=[[0,0],[0.25,0],[0.5,0],[0.75,0],[1,0],[1,0.25],[1,0.5],[1,0.75],[1,1],[0.75,1],[0.5,1],[0.25,1],[0,1],[0,0.75],[0,0.5],[0,0.25]];outlineConnect=0;gradientColor=none;html=1;whiteSpace=wrap;fontSize=12;fontStyle=0;container=1;pointerEvents=0;collapsible=0;recursiveResize=0;shape=mxgraph.aws4.group;grIcon=mxgraph.aws4.group_aws_cloud_alt;strokeColor=#232F3E;fillColor=none;verticalAlign=top;align=left;spacingLeft=30;fontColor=#232F3E;dashed=0;" vertex="1" parent="1">
                    <mxGeometry x="100" y="-450" width="1050" height="360" as="geometry"/>
                </mxCell>
                <mxCell id="19" value="Amazon Route 53" style="outlineConnect=0;fontColor=#232F3E;gradientColor=none;strokeColor=#ffffff;fillColor=#232F3E;dashed=0;verticalLabelPosition=middle;verticalAlign=bottom;align=center;html=1;whiteSpace=wrap;fontSize=10;fontStyle=1;spacing=3;shape=mxgraph.aws4.productIcon;prIcon=mxgraph.aws4.route_53;rounded=1;" parent="112" vertex="1">
                    <mxGeometry x="110" y="150" width="80" height="110" as="geometry"/>
                </mxCell>
                <mxCell id="12" value="Amazon Cognito" style="outlineConnect=0;fontColor=#232F3E;gradientColor=none;strokeColor=#ffffff;fillColor=#232F3E;dashed=0;verticalLabelPosition=middle;verticalAlign=bottom;align=center;html=1;whiteSpace=wrap;fontSize=10;fontStyle=1;spacing=3;shape=mxgraph.aws4.productIcon;prIcon=mxgraph.aws4.cognito;rounded=1;" parent="112" vertex="1">
                    <mxGeometry x="860" y="150" width="80" height="110" as="geometry"/>
                </mxCell>
                <mxCell id="13" value="Amazon API Gateway" style="outlineConnect=0;fontColor=#232F3E;gradientColor=none;strokeColor=#ffffff;fillColor=#232F3E;dashed=0;verticalLabelPosition=middle;verticalAlign=bottom;align=center;html=1;whiteSpace=wrap;fontSize=10;fontStyle=1;spacing=3;shape=mxgraph.aws4.productIcon;prIcon=mxgraph.aws4.api_gateway;rounded=1;" parent="112" vertex="1">
                    <mxGeometry x="500" y="150" width="80" height="110" as="geometry"/>
                </mxCell>
                <mxCell id="14" value="Amazon S3" style="outlineConnect=0;fontColor=#232F3E;gradientColor=none;strokeColor=#ffffff;fillColor=#232F3E;dashed=0;verticalLabelPosition=middle;verticalAlign=bottom;align=center;html=1;whiteSpace=wrap;fontSize=10;fontStyle=1;spacing=3;shape=mxgraph.aws4.productIcon;prIcon=mxgraph.aws4.s3;rounded=1;" parent="112" vertex="1">
                    <mxGeometry x="380" y="155" width="80" height="100" as="geometry"/>
                </mxCell>
                <mxCell id="15" value="AWS Lambda" style="outlineConnect=0;fontColor=#232F3E;gradientColor=none;strokeColor=#ffffff;fillColor=#232F3E;dashed=0;verticalLabelPosition=middle;verticalAlign=bottom;align=center;html=1;whiteSpace=wrap;fontSize=10;fontStyle=1;spacing=3;shape=mxgraph.aws4.productIcon;prIcon=mxgraph.aws4.lambda;rounded=1;" parent="112" vertex="1">
                    <mxGeometry x="630" y="155" width="80" height="100" as="geometry"/>
                </mxCell>
                <mxCell id="17" value="Amazon DynamoDB" style="outlineConnect=0;fontColor=#232F3E;gradientColor=none;strokeColor=#ffffff;fillColor=#232F3E;dashed=0;verticalLabelPosition=middle;verticalAlign=bottom;align=center;html=1;whiteSpace=wrap;fontSize=10;fontStyle=1;spacing=3;shape=mxgraph.aws4.productIcon;prIcon=mxgraph.aws4.dynamodb;rounded=1;" parent="112" vertex="1">
                    <mxGeometry x="750" y="150" width="80" height="110" as="geometry"/>
                </mxCell>
                <mxCell id="18" value="Amazon Cloudfront" style="outlineConnect=0;fontColor=#232F3E;gradientColor=none;strokeColor=#ffffff;fillColor=#232F3E;dashed=0;verticalLabelPosition=middle;verticalAlign=bottom;align=center;html=1;whiteSpace=wrap;fontSize=10;fontStyle=1;spacing=3;shape=mxgraph.aws4.productIcon;prIcon=mxgraph.aws4.cloudfront;rounded=1;" parent="112" vertex="1">
                    <mxGeometry x="240" y="150" width="80" height="110" as="geometry"/>
                </mxCell>
                <mxCell id="46" value="" style="edgeStyle=orthogonalEdgeStyle;html=1;endArrow=block;elbow=vertical;startArrow=none;endFill=1;strokeColor=#545B64;rounded=0;" parent="112" source="14" target="13" edge="1">
                    <mxGeometry width="100" relative="1" as="geometry">
                        <mxPoint x="470" y="130" as="sourcePoint"/>
                        <mxPoint x="500" y="200" as="targetPoint"/>
                    </mxGeometry>
                </mxCell>
                <mxCell id="50" value="" style="edgeStyle=orthogonalEdgeStyle;html=1;endArrow=block;elbow=vertical;startArrow=none;endFill=1;strokeColor=#545B64;rounded=0;" parent="112" source="13" target="15" edge="1">
                    <mxGeometry width="100" relative="1" as="geometry">
                        <mxPoint x="600" y="190" as="sourcePoint"/>
                        <mxPoint x="650" y="220" as="targetPoint"/>
                    </mxGeometry>
                </mxCell>
                <mxCell id="53" value="" style="edgeStyle=orthogonalEdgeStyle;html=1;endArrow=block;elbow=vertical;startArrow=none;endFill=1;strokeColor=#545B64;rounded=0;" parent="112" source="15" target="17" edge="1">
                    <mxGeometry width="100" relative="1" as="geometry">
                        <mxPoint x="710" y="120" as="sourcePoint"/>
                        <mxPoint x="760" y="120" as="targetPoint"/>
                    </mxGeometry>
                </mxCell>
                <mxCell id="57" value="" style="edgeStyle=orthogonalEdgeStyle;html=1;endArrow=block;elbow=vertical;startArrow=block;startFill=1;endFill=1;strokeColor=#545B64;rounded=0;" parent="112" source="13" target="12" edge="1">
                    <mxGeometry width="100" relative="1" as="geometry">
                        <mxPoint x="530" y="100" as="sourcePoint"/>
                        <mxPoint x="770" y="50" as="targetPoint"/>
                        <Array as="points">
                            <mxPoint x="540" y="110"/>
                            <mxPoint x="900" y="110"/>
                        </Array>
                    </mxGeometry>
                </mxCell>
                <mxCell id="58" value="" style="edgeStyle=orthogonalEdgeStyle;html=1;endArrow=block;elbow=vertical;startArrow=block;startFill=1;endFill=1;strokeColor=#545B64;rounded=0;" parent="112" source="14" target="12" edge="1">
                    <mxGeometry width="100" relative="1" as="geometry">
                        <mxPoint x="400" y="270" as="sourcePoint"/>
                        <mxPoint x="900" y="270" as="targetPoint"/>
                        <Array as="points">
                            <mxPoint x="420" y="270"/>
                            <mxPoint x="900" y="270"/>
                        </Array>
                    </mxGeometry>
                </mxCell>
                <mxCell id="72" value="" style="edgeStyle=orthogonalEdgeStyle;html=1;endArrow=block;elbow=vertical;startArrow=none;endFill=1;strokeColor=#545B64;rounded=0;" parent="112" source="19" target="18" edge="1">
                    <mxGeometry width="100" relative="1" as="geometry">
                        <mxPoint x="240" y="100" as="sourcePoint"/>
                        <mxPoint x="240" y="205" as="targetPoint"/>
                    </mxGeometry>
                </mxCell>
                <mxCell id="116" value="" style="edgeStyle=orthogonalEdgeStyle;html=1;endArrow=block;elbow=vertical;startArrow=none;endFill=1;strokeColor=#545B64;rounded=0;" edge="1" parent="112" source="18" target="14">
                    <mxGeometry width="100" relative="1" as="geometry">
                        <mxPoint x="350" y="120" as="sourcePoint"/>
                        <mxPoint x="450" y="120" as="targetPoint"/>
                    </mxGeometry>
                </mxCell>
                <mxCell id="113" value="devices" style="sketch=0;outlineConnect=0;gradientColor=none;fontColor=#545B64;strokeColor=none;fillColor=#879196;dashed=0;verticalLabelPosition=bottom;verticalAlign=top;align=center;html=1;fontSize=12;fontStyle=0;aspect=fixed;shape=mxgraph.aws4.illustration_devices;pointerEvents=1" vertex="1" parent="1">
                    <mxGeometry x="-40" y="-281.5" width="100" height="73" as="geometry"/>
                </mxCell>
                <mxCell id="117" value="" style="edgeStyle=orthogonalEdgeStyle;html=1;endArrow=block;elbow=vertical;startArrow=none;endFill=1;strokeColor=#545B64;rounded=0;" edge="1" parent="1" source="113" target="19">
                    <mxGeometry width="100" relative="1" as="geometry">
                        <mxPoint x="150" y="-600" as="sourcePoint"/>
                        <mxPoint x="250" y="-600" as="targetPoint"/>
                    </mxGeometry>
                </mxCell>
                <mxCell id="118" value="AWS Cloud" style="points=[[0,0],[0.25,0],[0.5,0],[0.75,0],[1,0],[1,0.25],[1,0.5],[1,0.75],[1,1],[0.75,1],[0.5,1],[0.25,1],[0,1],[0,0.75],[0,0.5],[0,0.25]];outlineConnect=0;gradientColor=none;html=1;whiteSpace=wrap;fontSize=12;fontStyle=0;container=1;pointerEvents=0;collapsible=0;recursiveResize=0;shape=mxgraph.aws4.group;grIcon=mxgraph.aws4.group_aws_cloud_alt;strokeColor=#232F3E;fillColor=none;verticalAlign=top;align=left;spacingLeft=30;fontColor=#232F3E;dashed=0;" vertex="1" parent="1">
                    <mxGeometry x="100" y="-70" width="1050" height="368" as="geometry"/>
                </mxCell>
                <mxCell id="126" value="" style="edgeStyle=orthogonalEdgeStyle;html=1;endArrow=block;elbow=vertical;startArrow=none;endFill=1;strokeColor=#545B64;rounded=0;" edge="1" parent="118" source="139" target="140">
                    <mxGeometry width="100" relative="1" as="geometry">
                        <mxPoint x="460" y="205" as="sourcePoint"/>
                        <mxPoint x="500" y="205" as="targetPoint"/>
                    </mxGeometry>
                </mxCell>
                <mxCell id="127" value="" style="edgeStyle=orthogonalEdgeStyle;html=1;endArrow=block;elbow=vertical;startArrow=none;endFill=1;strokeColor=#545B64;rounded=0;" edge="1" parent="118" source="140" target="142">
                    <mxGeometry width="100" relative="1" as="geometry">
                        <mxPoint x="580" y="205" as="sourcePoint"/>
                        <mxPoint x="630" y="205" as="targetPoint"/>
                    </mxGeometry>
                </mxCell>
                <mxCell id="128" value="" style="edgeStyle=orthogonalEdgeStyle;html=1;endArrow=block;elbow=vertical;startArrow=none;endFill=1;strokeColor=#545B64;rounded=0;" edge="1" parent="118" source="142" target="143">
                    <mxGeometry width="100" relative="1" as="geometry">
                        <mxPoint x="710" y="205" as="sourcePoint"/>
                        <mxPoint x="750" y="205" as="targetPoint"/>
                    </mxGeometry>
                </mxCell>
                <mxCell id="129" value="" style="edgeStyle=orthogonalEdgeStyle;html=1;endArrow=block;elbow=vertical;startArrow=block;startFill=1;endFill=1;strokeColor=#545B64;rounded=0;exitX=0.5;exitY=0;exitDx=0;exitDy=0;exitPerimeter=0;entryX=0.5;entryY=0;entryDx=0;entryDy=0;entryPerimeter=0;" edge="1" parent="118" source="140" target="144">
                    <mxGeometry width="100" relative="1" as="geometry">
                        <mxPoint x="540" y="150" as="sourcePoint"/>
                        <mxPoint x="900" y="150" as="targetPoint"/>
                        <Array as="points">
                            <mxPoint x="539" y="160"/>
                            <mxPoint x="540" y="160"/>
                            <mxPoint x="540" y="110"/>
                            <mxPoint x="900" y="110"/>
                        </Array>
                    </mxGeometry>
                </mxCell>
                <mxCell id="130" value="" style="edgeStyle=orthogonalEdgeStyle;html=1;endArrow=block;elbow=vertical;startArrow=block;startFill=1;endFill=1;strokeColor=#545B64;rounded=0;" edge="1" parent="118" source="139" target="145">
                    <mxGeometry width="100" relative="1" as="geometry">
                        <mxPoint x="420" y="255" as="sourcePoint"/>
                        <mxPoint x="900" y="320" as="targetPoint"/>
                        <Array as="points">
                            <mxPoint x="420" y="350"/>
                            <mxPoint x="900" y="350"/>
                        </Array>
                    </mxGeometry>
                </mxCell>
                <mxCell id="131" value="" style="edgeStyle=orthogonalEdgeStyle;html=1;endArrow=block;elbow=vertical;startArrow=none;endFill=1;strokeColor=#545B64;rounded=0;" edge="1" parent="118" source="136" target="135">
                    <mxGeometry width="100" relative="1" as="geometry">
                        <mxPoint x="190" y="205" as="sourcePoint"/>
                        <mxPoint x="240" y="205" as="targetPoint"/>
                    </mxGeometry>
                </mxCell>
                <mxCell id="132" value="" style="edgeStyle=orthogonalEdgeStyle;html=1;endArrow=block;elbow=vertical;startArrow=none;endFill=1;strokeColor=#545B64;rounded=0;" edge="1" parent="118" source="135" target="139">
                    <mxGeometry width="100" relative="1" as="geometry">
                        <mxPoint x="320" y="205" as="sourcePoint"/>
                        <mxPoint x="380" y="205" as="targetPoint"/>
                    </mxGeometry>
                </mxCell>
                <mxCell id="135" value="" style="sketch=0;points=[[0,0,0],[0.25,0,0],[0.5,0,0],[0.75,0,0],[1,0,0],[0,1,0],[0.25,1,0],[0.5,1,0],[0.75,1,0],[1,1,0],[0,0.25,0],[0,0.5,0],[0,0.75,0],[1,0.25,0],[1,0.5,0],[1,0.75,0]];outlineConnect=0;fontColor=#232F3E;gradientColor=#945DF2;gradientDirection=north;fillColor=#5A30B5;strokeColor=#ffffff;dashed=0;verticalLabelPosition=bottom;verticalAlign=top;align=center;html=1;fontSize=12;fontStyle=0;aspect=fixed;shape=mxgraph.aws4.resourceIcon;resIcon=mxgraph.aws4.cloudfront;" vertex="1" parent="118">
                    <mxGeometry x="240" y="166" width="78" height="78" as="geometry"/>
                </mxCell>
                <mxCell id="136" value="" style="sketch=0;points=[[0,0,0],[0.25,0,0],[0.5,0,0],[0.75,0,0],[1,0,0],[0,1,0],[0.25,1,0],[0.5,1,0],[0.75,1,0],[1,1,0],[0,0.25,0],[0,0.5,0],[0,0.75,0],[1,0.25,0],[1,0.5,0],[1,0.75,0]];outlineConnect=0;fontColor=#232F3E;gradientColor=#945DF2;gradientDirection=north;fillColor=#5A30B5;strokeColor=#ffffff;dashed=0;verticalLabelPosition=bottom;verticalAlign=top;align=center;html=1;fontSize=12;fontStyle=0;aspect=fixed;shape=mxgraph.aws4.resourceIcon;resIcon=mxgraph.aws4.route_53;" vertex="1" parent="118">
                    <mxGeometry x="110" y="166" width="78" height="78" as="geometry"/>
                </mxCell>
                <mxCell id="139" value="" style="sketch=0;points=[[0,0,0],[0.25,0,0],[0.5,0,0],[0.75,0,0],[1,0,0],[0,1,0],[0.25,1,0],[0.5,1,0],[0.75,1,0],[1,1,0],[0,0.25,0],[0,0.5,0],[0,0.75,0],[1,0.25,0],[1,0.5,0],[1,0.75,0]];outlineConnect=0;fontColor=#232F3E;gradientColor=#60A337;gradientDirection=north;fillColor=#277116;strokeColor=#ffffff;dashed=0;verticalLabelPosition=bottom;verticalAlign=top;align=center;html=1;fontSize=12;fontStyle=0;aspect=fixed;shape=mxgraph.aws4.resourceIcon;resIcon=mxgraph.aws4.s3;" vertex="1" parent="118">
                    <mxGeometry x="380" y="166" width="78" height="78" as="geometry"/>
                </mxCell>
                <mxCell id="140" value="" style="sketch=0;points=[[0,0,0],[0.25,0,0],[0.5,0,0],[0.75,0,0],[1,0,0],[0,1,0],[0.25,1,0],[0.5,1,0],[0.75,1,0],[1,1,0],[0,0.25,0],[0,0.5,0],[0,0.75,0],[1,0.25,0],[1,0.5,0],[1,0.75,0]];outlineConnect=0;fontColor=#232F3E;gradientColor=#FF4F8B;gradientDirection=north;fillColor=#BC1356;strokeColor=#ffffff;dashed=0;verticalLabelPosition=bottom;verticalAlign=top;align=center;html=1;fontSize=12;fontStyle=0;aspect=fixed;shape=mxgraph.aws4.resourceIcon;resIcon=mxgraph.aws4.api_gateway;" vertex="1" parent="118">
                    <mxGeometry x="500" y="166" width="78" height="78" as="geometry"/>
                </mxCell>
                <mxCell id="142" value="" style="sketch=0;points=[[0,0,0],[0.25,0,0],[0.5,0,0],[0.75,0,0],[1,0,0],[0,1,0],[0.25,1,0],[0.5,1,0],[0.75,1,0],[1,1,0],[0,0.25,0],[0,0.5,0],[0,0.75,0],[1,0.25,0],[1,0.5,0],[1,0.75,0]];outlineConnect=0;fontColor=#232F3E;gradientColor=#F78E04;gradientDirection=north;fillColor=#D05C17;strokeColor=#ffffff;dashed=0;verticalLabelPosition=bottom;verticalAlign=top;align=center;html=1;fontSize=12;fontStyle=0;aspect=fixed;shape=mxgraph.aws4.resourceIcon;resIcon=mxgraph.aws4.lambda;" vertex="1" parent="118">
                    <mxGeometry x="630" y="166" width="78" height="78" as="geometry"/>
                </mxCell>
                <mxCell id="143" value="" style="sketch=0;points=[[0,0,0],[0.25,0,0],[0.5,0,0],[0.75,0,0],[1,0,0],[0,1,0],[0.25,1,0],[0.5,1,0],[0.75,1,0],[1,1,0],[0,0.25,0],[0,0.5,0],[0,0.75,0],[1,0.25,0],[1,0.5,0],[1,0.75,0]];outlineConnect=0;fontColor=#232F3E;gradientColor=#4D72F3;gradientDirection=north;fillColor=#3334B9;strokeColor=#ffffff;dashed=0;verticalLabelPosition=bottom;verticalAlign=top;align=center;html=1;fontSize=12;fontStyle=0;aspect=fixed;shape=mxgraph.aws4.resourceIcon;resIcon=mxgraph.aws4.dynamodb;" vertex="1" parent="118">
                    <mxGeometry x="750" y="166" width="78" height="78" as="geometry"/>
                </mxCell>
                <mxCell id="144" value="" style="sketch=0;points=[[0,0,0],[0.25,0,0],[0.5,0,0],[0.75,0,0],[1,0,0],[0,1,0],[0.25,1,0],[0.5,1,0],[0.75,1,0],[1,1,0],[0,0.25,0],[0,0.5,0],[0,0.75,0],[1,0.25,0],[1,0.5,0],[1,0.75,0]];outlineConnect=0;fontColor=#232F3E;gradientColor=#F78E04;gradientDirection=north;fillColor=#D05C17;strokeColor=#ffffff;dashed=0;verticalLabelPosition=bottom;verticalAlign=top;align=center;html=1;fontSize=12;fontStyle=0;aspect=fixed;shape=mxgraph.aws4.resourceIcon;resIcon=mxgraph.aws4.lambda;" vertex="1" parent="118">
                    <mxGeometry x="860" y="166" width="78" height="78" as="geometry"/>
                </mxCell>
                <mxCell id="145" value="Third-Party Identity Providers" style="text;html=1;strokeColor=none;fillColor=none;align=center;verticalAlign=middle;whiteSpace=wrap;rounded=0;" vertex="1" parent="118">
                    <mxGeometry x="818.5" y="305" width="161" height="30" as="geometry"/>
                </mxCell>
                <mxCell id="146" value="" style="endArrow=classic;startArrow=classic;html=1;exitX=0.5;exitY=0;exitDx=0;exitDy=0;" edge="1" parent="118" source="145" target="144">
                    <mxGeometry width="50" height="50" relative="1" as="geometry">
                        <mxPoint x="980" y="280" as="sourcePoint"/>
                        <mxPoint x="1030" y="230" as="targetPoint"/>
                    </mxGeometry>
                </mxCell>
                <mxCell id="147" value="Lambda Authorizer" style="text;html=1;strokeColor=none;fillColor=none;align=center;verticalAlign=middle;whiteSpace=wrap;rounded=0;" vertex="1" parent="118">
                    <mxGeometry x="950" y="190" width="60" height="30" as="geometry"/>
                </mxCell>
                <mxCell id="133" value="devices" style="sketch=0;outlineConnect=0;gradientColor=none;fontColor=#545B64;strokeColor=none;fillColor=#879196;dashed=0;verticalLabelPosition=bottom;verticalAlign=top;align=center;html=1;fontSize=12;fontStyle=0;aspect=fixed;shape=mxgraph.aws4.illustration_devices;pointerEvents=1" vertex="1" parent="1">
                    <mxGeometry x="-40" y="98.5" width="100" height="73" as="geometry"/>
                </mxCell>
                <mxCell id="134" value="" style="edgeStyle=orthogonalEdgeStyle;html=1;endArrow=block;elbow=vertical;startArrow=none;endFill=1;strokeColor=#545B64;rounded=0;" edge="1" parent="1" source="133" target="136">
                    <mxGeometry width="100" relative="1" as="geometry">
                        <mxPoint x="150" y="-220" as="sourcePoint"/>
                        <mxPoint x="210" y="135" as="targetPoint"/>
                    </mxGeometry>
                </mxCell>
            </root>
        </mxGraphModel>
    </diagram>
</mxfile>